<?xml version="1.0" encoding="UTF-8"?>
<svg xmlns="http://www.w3.org/2000/svg" xmlns:xlink="http://www.w3.org/1999/xlink" id="Layer_1" data-name="Layer 1" viewBox="0 0 60 60">
  <defs>
    <style>
      .cls-1, .cls-2 {
        fill: #fff;
      }

      .cls-2 {
        fill-rule: evenodd;
      }

      .cls-3, .cls-4 {
        fill: none;
      }

      .cls-5 {
        fill: #d70a53;
      }

      .cls-4 {
        stroke: #fff;
        stroke-miterlimit: 10;
        stroke-width: .75px;
      }

      .cls-6 {
        clip-path: url(#clippath);
      }
    </style>
    <clipPath id="clippath">
      <rect class="cls-3" x="12" y="12" width="36" height="36"></rect>
    </clipPath>
  </defs>
  <rect class="cls-5" width="60" height="60" rx="10" ry="10"></rect>
  <g class="cls-6">
    <g>
      <path class="cls-1" d="M36.62,30.78c-.08-.07-.18-.12-.29-.14-.11-.02-.22,0-.32.04-.1.04-.19.12-.25.21-.06.09-.09.2-.09.31v15.3c0,.09.02.19.07.27.04.08.11.15.19.2.08.05.17.08.26.09.09,0,.19,0,.27-.05l3.03-1.32.84,1.97c.06.13.17.24.31.29.14.05.29.05.43-.01l4.1-1.77c.13-.06.24-.17.29-.31s.05-.29-.01-.43l-.84-1.97,3.03-1.32c.09-.04.16-.1.22-.17.06-.07.1-.16.11-.25.02-.09,0-.19-.02-.28-.03-.09-.08-.17-.15-.23l-11.19-10.43ZM43.65,42.65c-.13.06-.24.17-.29.31s-.05.29.01.43l.84,1.97-3.07,1.34-.84-1.97c-.06-.13-.17-.24-.31-.29-.14-.05-.29-.05-.43.01l-2.76,1.2v-13.15l9.62,8.96-2.77,1.19Z"></path>
      <path class="cls-1" d="M33.94,44.63c.15,0,.29-.06.4-.16.11-.11.16-.25.16-.4s-.06-.29-.16-.4c-.11-.11-.25-.16-.4-.16H15.4c-.6,0-1.18-.24-1.61-.67s-.67-1-.67-1.61v-19.1h30.37v13.22c0,.15.06.29.16.4.11.11.25.16.4.16s.29-.06.4-.16c.11-.11.16-.25.16-.4V15.4c0-.9-.36-1.76-1-2.4s-1.5-1-2.4-1H15.4c-.9,0-1.76.36-2.4,1s-1,1.5-1,2.4v25.83c0,.9.36,1.76,1,2.4.64.64,1.5.99,2.4.99h18.54ZM15.4,13.13h25.83c.6,0,1.18.24,1.61.67.43.43.66,1,.66,1.61v5.6H13.12v-5.6c0-.6.24-1.18.67-1.61s1-.67,1.61-.67Z"></path>
      <path class="cls-2" d="M15.4,11.75h25.83c.97,0,1.89.39,2.58,1.07.68.68,1.07,1.61,1.07,2.58v19.95c0,.22-.09.42-.24.57-.15.15-.36.24-.57.24s-.42-.09-.57-.24c-.15-.15-.24-.36-.24-.57v-12.97H13.37v18.85c0,.54.21,1.05.59,1.43.38.38.89.59,1.43.59h18.54c.22,0,.42.09.57.24.15.15.24.36.24.57s-.09.42-.24.57c-.15.15-.36.24-.57.24H15.4c-.97,0-1.89-.38-2.58-1.07-.68-.68-1.07-1.61-1.07-2.58V15.4c0-.97.39-1.89,1.07-2.58.68-.68,1.61-1.07,2.58-1.07ZM15.4,12.25c-.83,0-1.63.33-2.23.92-.59.59-.92,1.39-.92,2.22v25.83c0,.83.33,1.63.92,2.22.59.59,1.39.92,2.22.92h18.54c.08,0,.16-.03.22-.09.06-.06.09-.14.09-.22s-.03-.16-.09-.22c-.06-.06-.14-.09-.22-.09H15.4c-.67,0-1.31-.27-1.78-.74-.47-.47-.74-1.11-.74-1.78v-19.35h30.88v13.47c0,.08.03.16.09.22.06.06.14.09.22.09s.16-.03.22-.09c.06-.06.09-.14.09-.22V15.4c0-.83-.33-1.63-.92-2.23-.59-.59-1.39-.92-2.22-.92H15.4ZM15.4,13.37c-.54,0-1.05.21-1.43.59-.38.38-.59.89-.59,1.43v5.35h29.88v-5.35c0-.54-.21-1.05-.59-1.43-.38-.38-.89-.59-1.43-.59H15.4ZM13.61,13.61c.47-.47,1.11-.74,1.78-.74h25.83c.67,0,1.31.27,1.78.74.47.47.74,1.11.74,1.78v5.85H12.88v-5.85c0-.67.27-1.31.74-1.78Z"></path>
      <path class="cls-1" d="M32.81,26.62h-10.74c-.13-.64-.47-1.21-.98-1.62-.5-.41-1.13-.63-1.78-.63s-1.28.22-1.78.63c-.5.41-.85.98-.98,1.62h-.62c-.15,0-.29.06-.4.16-.11.11-.16.25-.16.4s.06.29.16.4c.11.11.25.16.4.16h.62c.13.64.47,1.21.98,1.62.5.41,1.13.63,1.78.63s1.28-.22,1.78-.63c.5-.41.85-.98.98-1.62h10.74c.15,0,.29-.06.4-.16.11-.11.16-.25.16-.4s-.06-.29-.16-.4c-.11-.11-.25-.16-.4-.16ZM19.31,28.88c-.33,0-.66-.1-.94-.28s-.49-.45-.62-.76c-.13-.31-.16-.65-.1-.98.07-.33.23-.63.46-.86s.54-.4.86-.46c.33-.07.67-.03.98.1.31.13.57.34.76.62s.28.6.28.94c0,.45-.18.88-.49,1.19-.32.32-.75.49-1.19.49Z"></path>
      <path class="cls-2" d="M17.37,24.81c.55-.45,1.23-.69,1.94-.69s1.39.24,1.94.69c.49.4.85.95,1.02,1.56h10.55c.22,0,.42.09.57.24.15.15.24.36.24.57s-.09.42-.24.57c-.15.15-.36.24-.57.24h-10.55c-.17.61-.52,1.16-1.02,1.56-.55.45-1.23.69-1.94.69s-1.39-.24-1.94-.69c-.49-.4-.85-.95-1.02-1.56h-.42c-.22,0-.42-.09-.57-.24-.15-.15-.24-.36-.24-.57s.09-.42.24-.57c.15-.15.36-.24.57-.24h.42c.17-.61.52-1.16,1.02-1.56ZM19.31,24.62c-.59,0-1.16.2-1.62.58-.46.37-.77.89-.89,1.47l-.04.2h-.82c-.08,0-.16.03-.22.09-.06.06-.09.14-.09.22s.03.16.09.22c.06.06.14.09.22.09h.82l.04.2c.12.58.43,1.1.89,1.47.46.37,1.03.58,1.62.58s1.16-.2,1.62-.58c.46-.37.77-.89.89-1.47l.04-.2h10.95c.08,0,.16-.03.22-.09.06-.06.09-.14.09-.22s-.03-.16-.09-.22c-.06-.06-.14-.09-.22-.09h-10.95l-.04-.2c-.12-.58-.43-1.1-.89-1.47-.46-.37-1.03-.58-1.62-.58ZM19.86,25.86c-.26-.11-.55-.14-.83-.08-.28.06-.53.19-.74.39-.2.2-.34.46-.39.74-.06.28-.03.57.08.83.11.26.29.49.53.65.24.16.51.24.8.24.38,0,.75-.15,1.02-.42.27-.27.42-.64.42-1.02,0-.28-.08-.56-.24-.8-.16-.24-.38-.42-.65-.53ZM18.93,25.29c.38-.07.77-.04,1.12.11.35.15.66.4.87.71.21.32.33.69.33,1.08,0,.51-.2,1.01-.57,1.37-.36.36-.86.57-1.37.57-.38,0-.76-.11-1.08-.33-.32-.21-.57-.52-.71-.87-.15-.35-.18-.74-.11-1.12.07-.38.26-.72.53-.99.27-.27.62-.46.99-.53Z"></path>
      <path class="cls-1" d="M27.13,37.88c-.13-.64-.47-1.21-.98-1.62-.5-.41-1.13-.63-1.78-.63s-1.28.22-1.78.63c-.5.41-.85.98-.98,1.62h-5.68c-.15,0-.29.06-.4.16-.11.11-.16.25-.16.4s.06.29.16.4c.11.11.25.16.4.16h5.68c.13.64.47,1.21.98,1.62.5.41,1.13.63,1.78.63s1.28-.22,1.78-.63c.5-.41.85-.98.98-1.62h5.68c.15,0,.29-.06.4-.16.11-.11.16-.25.16-.4s-.06-.29-.16-.4c-.11-.11-.25-.16-.4-.16h-5.68ZM24.38,40.13c-.33,0-.66-.1-.94-.28-.28-.19-.49-.45-.62-.76-.13-.31-.16-.65-.1-.98.07-.33.23-.63.46-.86s.54-.4.86-.46c.33-.07.67-.03.98.1.31.13.57.34.76.62s.28.6.28.94c0,.45-.18.88-.49,1.19-.32.32-.75.49-1.19.49Z"></path>
      <path class="cls-2" d="M22.44,36.06c.55-.45,1.23-.69,1.94-.69s1.39.24,1.94.69c.49.4.85.95,1.02,1.56h5.48c.22,0,.42.09.57.24.15.15.24.36.24.57s-.09.42-.24.57c-.15.15-.36.24-.57.24h-5.48c-.17.61-.52,1.16-1.02,1.56-.55.45-1.23.69-1.94.69s-1.39-.24-1.94-.69c-.49-.4-.85-.95-1.02-1.56h-5.48c-.22,0-.42-.09-.57-.24-.15-.15-.24-.36-.24-.57s.09-.42.24-.57c.15-.15.36-.24.57-.24h5.48c.17-.61.52-1.16,1.02-1.56ZM24.38,35.87c-.59,0-1.16.2-1.62.58-.46.37-.77.89-.89,1.47l-.04.2h-5.89c-.08,0-.16.03-.22.09-.06.06-.09.14-.09.22s.03.16.09.22c.06.06.14.09.22.09h5.89l.04.2c.12.58.43,1.1.89,1.47.46.37,1.03.58,1.62.58s1.16-.2,1.62-.58c.46-.37.77-.89.89-1.47l.04-.2h5.89c.08,0,.16-.03.22-.09.06-.06.09-.14.09-.22s-.03-.16-.09-.22c-.06-.06-.14-.09-.22-.09h-5.89l-.04-.2c-.12-.58-.43-1.1-.89-1.47-.46-.37-1.03-.58-1.62-.58ZM24.93,37.11c-.26-.11-.55-.14-.83-.08-.28.06-.53.19-.74.39-.2.2-.34.46-.39.74-.06.28-.03.57.08.83.11.26.29.49.53.65.24.16.51.24.8.24.38,0,.75-.15,1.02-.42.27-.27.42-.64.42-1.02,0-.28-.08-.56-.24-.8-.16-.24-.38-.42-.65-.53ZM24,36.54c.38-.07.77-.04,1.12.11.35.15.66.4.87.71s.33.69.33,1.08c0,.51-.2,1.01-.57,1.37-.36.36-.86.57-1.37.57-.38,0-.76-.11-1.08-.33-.32-.21-.57-.52-.71-.87-.15-.35-.18-.74-.11-1.12.07-.38.26-.72.53-.99.27-.27.62-.46.99-.53Z"></path>
      <path class="cls-1" d="M30.56,30c-.65,0-1.28.22-1.78.63-.5.41-.85.98-.98,1.62h-11.87c-.15,0-.29.06-.4.16-.11.11-.16.25-.16.4s.06.29.16.4c.11.11.25.16.4.16h11.87c.11.52.36,1,.73,1.39.37.38.84.66,1.36.78.52.13,1.06.11,1.56-.06.5-.17.95-.48,1.29-.89.34-.41.55-.91.61-1.44.06-.53-.02-1.06-.25-1.54-.23-.48-.59-.89-1.04-1.17-.45-.28-.97-.44-1.5-.44ZM30.56,34.5c-.33,0-.66-.1-.94-.28-.28-.19-.49-.45-.62-.76-.13-.31-.16-.65-.1-.98.07-.33.23-.63.46-.86s.54-.4.86-.46c.33-.07.67-.03.98.1.31.13.57.34.76.62.19.28.28.6.28.94,0,.45-.18.88-.49,1.19-.32.32-.75.49-1.19.49Z"></path>
      <path class="cls-2" d="M28.63,30.44c.55-.45,1.23-.69,1.94-.69.58,0,1.15.16,1.64.47.49.31.88.75,1.13,1.28.25.52.34,1.11.27,1.68-.07.58-.3,1.12-.67,1.57-.37.45-.85.78-1.4.97-.55.18-1.14.21-1.7.07-.56-.14-1.07-.43-1.48-.85-.35-.37-.61-.82-.74-1.31h-11.67c-.22,0-.42-.09-.57-.24-.15-.15-.24-.36-.24-.57s.09-.42.24-.57c.15-.15.36-.24.57-.24h11.67c.17-.61.52-1.16,1.02-1.56ZM30.56,30.25c-.59,0-1.16.2-1.62.58-.46.37-.77.89-.89,1.47l-.04.2h-12.07c-.08,0-.16.03-.22.09-.06.06-.09.14-.09.22s.03.16.09.22c.06.06.14.09.22.09h12.07l.04.2c.1.47.33.91.66,1.26.34.35.76.6,1.23.71.47.12.96.1,1.42-.06.46-.15.87-.43,1.17-.81.31-.38.5-.83.56-1.31.06-.48-.02-.97-.23-1.41-.21-.44-.54-.81-.95-1.07-.41-.26-.88-.4-1.37-.4ZM31.11,31.48c-.26-.11-.55-.14-.83-.08-.28.06-.53.19-.74.39-.2.2-.34.46-.39.74-.06.28-.03.57.08.83.11.26.29.49.53.65.24.16.51.24.8.24.38,0,.75-.15,1.02-.42.27-.27.42-.64.42-1.02,0-.28-.08-.56-.24-.8-.16-.24-.38-.42-.65-.53ZM30.18,30.91c.38-.07.77-.04,1.12.11.35.15.66.4.87.71.21.32.33.69.33,1.08,0,.51-.2,1.01-.57,1.37-.36.36-.86.57-1.37.57-.38,0-.76-.11-1.08-.33-.32-.21-.57-.52-.71-.87-.15-.35-.18-.74-.11-1.12.07-.38.26-.72.53-.99.27-.27.62-.46.99-.53Z"></path>
      <circle class="cls-4" cx="39.72" cy="17.06" r="1.33"></circle>
      <circle class="cls-4" cx="34.72" cy="17.06" r="1.33"></circle>
      <circle class="cls-4" cx="29.71" cy="17.06" r="1.33"></circle>
    </g>
  </g>
</svg>
