<?xml version="1.0" encoding="UTF-8"?>
<svg xmlns="http://www.w3.org/2000/svg" xmlns:xlink="http://www.w3.org/1999/xlink" id="Layer_1" data-name="Layer 1" viewBox="0 0 60 60">
  <defs>
    <style>
      .cls-1 {
        fill: none;
      }

      .cls-2 {
        fill: #d70a53;
      }

      .cls-3 {
        fill: #fff;
        stroke: #fff;
        stroke-width: .5px;
      }

      .cls-4 {
        clip-path: url(#clippath);
      }
    </style>
    <clipPath id="clippath">
      <rect class="cls-1" x="12" y="11.88" width="36" height="36"></rect>
    </clipPath>
  </defs>
  <rect class="cls-2" y="-.12" width="60" height="60" rx="10" ry="10"></rect>
  <g class="cls-4">
    <g>
      <path class="cls-3" d="M34.06,26.67l-5.48,4.9-2.63-2.56c-.29-.28-.77-.29-1.07-.01-.3.28-.31.73-.02,1.01l3.15,3.06c.29.28.77.29,1.07.02l6.03-5.38c.15-.13.23-.31.24-.5,0-.19-.07-.37-.21-.51-.29-.29-.78-.3-1.09-.03Z"></path>
      <path class="cls-3" d="M30,19.67c-5.63,0-10.22,4.58-10.22,10.22s4.58,10.22,10.22,10.22,10.22-4.58,10.22-10.22-4.58-10.22-10.22-10.22ZM30,38.73c-4.88,0-8.85-3.97-8.85-8.85s3.97-8.85,8.85-8.85,8.85,3.96,8.85,8.85-3.96,8.85-8.85,8.85Z"></path>
      <path class="cls-3" d="M44.6,25.98l.23-4.21c.02-.28-.14-.55-.39-.67l-3.75-1.89-1.9-3.75c-.13-.25-.39-.4-.67-.39l-4.22.23-3.51-2.32c-.24-.16-.54-.16-.78,0l-3.51,2.32-4.21-.23c-.28-.02-.55.14-.67.39l-1.9,3.75-3.75,1.89c-.25.13-.4.39-.39.67l.23,4.21-2.32,3.51c-.16.24-.16.54,0,.78l2.31,3.52-.23,4.21c-.02.28.14.55.39.67l3.75,1.89,1.9,3.75c.13.25.39.4.67.39l4.21-.23,3.51,2.32c.24.16.55.16.78,0l3.51-2.32,4.21.23c.28.02.55-.14.67-.39l1.9-3.75,3.75-1.89c.25-.13.4-.39.39-.67l-.23-4.21,2.32-3.51c.16-.24.16-.54,0-.78l-2.31-3.51ZM43.28,33.21c-.09.13-.13.28-.11.43l.22,3.98-3.54,1.79c-.14.07-.24.18-.31.31l-1.79,3.54-3.98-.22c-.15,0-.3.03-.43.11l-3.32,2.19-3.32-2.19c-.12-.08-.25-.12-.39-.12h-.04l-3.98.22-1.79-3.54c-.07-.14-.18-.24-.31-.31l-3.55-1.78.22-3.98c0-.15-.03-.3-.11-.43l-2.19-3.32,2.19-3.32c.09-.13.13-.28.11-.43l-.22-3.98,3.54-1.79c.14-.07.24-.18.31-.31l1.79-3.54,3.98.22c.15,0,.3-.03.43-.11l3.32-2.19,3.32,2.19c.13.09.28.13.43.11l3.98-.22,1.79,3.54c.07.14.18.24.31.31l3.54,1.79-.22,3.98c0,.15.03.3.11.43l2.19,3.32-2.19,3.32Z"></path>
    </g>
  </g>
</svg>
