<?xml version="1.0" encoding="UTF-8"?>
<svg xmlns="http://www.w3.org/2000/svg" id="Layer_1" data-name="Layer 1" viewBox="0 0 60 60">
  <defs>
    <style>
      .cls-1 {
        fill: #d70a53;
      }

      .cls-2 {
        fill: #fff;
        stroke: #fff;
        stroke-width: .5px;
      }
    </style>
  </defs>
  <rect class="cls-1" width="60" height="60" rx="10" ry="10"></rect>
  <path class="cls-2" d="M30.61,13.13c0-.31-.25-.56-.56-.56-.02,0-.04,0-.06,0-3.7,0-7.24,1.15-10.24,3.33-3.77,2.74-6.24,6.78-6.97,11.38-.73,4.6.38,9.21,3.12,12.98,1.83,2.51,4.25,4.47,7.07,5.7l-1.28.32c-.3.08-.48.38-.41.68.08.3.38.48.68.41l3.02-.76c.17-.04.31-.16.38-.32.07-.16.06-.34-.02-.49l-1.46-2.75c-.1-.19-.3-.3-.5-.3-.09,0-.18.02-.26.07-.27.15-.38.49-.23.76l.77,1.45c-2.73-1.15-5.08-3.02-6.84-5.44-2.56-3.52-3.6-7.84-2.92-12.14.68-4.3,3-8.08,6.52-10.65,2.82-2.05,6.15-3.13,9.63-3.12h0c.31,0,.56-.25.56-.56ZM47.22,32.73c-.73,4.6-3.2,8.64-6.97,11.38-3,2.18-6.54,3.33-10.23,3.33-.02,0-.04,0-.07,0-.31,0-.56-.25-.56-.56,0-.31.25-.56.56-.56h0c3.48.01,6.81-1.06,9.63-3.12,7.28-5.29,8.89-15.51,3.6-22.78-1.76-2.42-4.11-4.28-6.84-5.43l.77,1.45c.15.27.04.61-.23.76-.27.15-.61.04-.76-.23l-1.46-2.75c-.08-.15-.09-.33-.02-.49s.21-.27.38-.32l3.02-.76s.09-.02.14-.02c.25,0,.48.17.55.43.08.3-.11.61-.41.68l-1.28.32c2.81,1.24,5.24,3.19,7.07,5.7,2.74,3.77,3.85,8.38,3.12,12.98ZM35.57,20.38c-.85-.49-1.75-.86-2.69-1.12l-.68-1.77c-.08-.22-.29-.36-.52-.36h-3.33c-.23,0-.44.14-.52.36l-.68,1.77c-.94.25-1.85.63-2.69,1.12l-1.73-.77c-.21-.09-.46-.05-.63.12l-2.35,2.35c-.16.16-.21.41-.12.63l.77,1.73c-.49.85-.86,1.75-1.12,2.69l-1.77.68c-.22.08-.36.29-.36.52v3.33c0,.23.14.44.36.52l1.77.68c.25.94.63,1.85,1.12,2.69l-.77,1.73c-.09.21-.05.46.12.63l2.35,2.35c.16.16.41.21.63.12l1.73-.77c.85.49,1.75.87,2.69,1.12l.68,1.77c.08.22.29.36.52.36h3.33c.23,0,.44-.14.52-.36l.68-1.77c.94-.25,1.85-.63,2.69-1.12l1.73.77c.21.09.46.05.63-.12l2.35-2.35c.16-.16.21-.41.12-.63l-.77-1.73c.49-.85.87-1.75,1.12-2.69l1.77-.68c.22-.08.36-.29.36-.52v-3.33c0-.23-.14-.44-.36-.52l-1.77-.68c-.25-.94-.63-1.85-1.12-2.69l.77-1.73c.09-.21.05-.46-.12-.63l-2.35-2.36c-.16-.16-.41-.21-.63-.12l-1.73.77ZM35.76,21.52l1.64-.73,1.81,1.81-.73,1.65c-.08.17-.06.37.04.52.56.9.96,1.88,1.21,2.91.04.18.17.33.35.39l1.68.65v2.56l-1.68.65c-.17.07-.3.21-.35.39-.24,1.03-.65,2.01-1.21,2.91-.1.16-.11.35-.04.52l.73,1.64-1.81,1.81-1.65-.73c-.17-.08-.37-.06-.52.04-.9.56-1.88.96-2.91,1.21-.18.04-.33.17-.39.35l-.65,1.68h-2.56l-.65-1.68c-.07-.17-.21-.3-.39-.35-1.03-.24-2.01-.65-2.91-1.21-.16-.1-.35-.11-.52-.04l-1.65.73-1.81-1.81.73-1.65c.08-.17.06-.37-.04-.52-.56-.9-.96-1.88-1.21-2.91-.04-.18-.17-.33-.35-.39l-1.68-.65v-2.56l1.68-.65c.17-.07.3-.21.35-.39.24-1.03.65-2.01,1.21-2.91.1-.16.11-.35.04-.52l-.73-1.64,1.81-1.81,1.65.73c.17.08.37.06.52-.04.9-.56,1.88-.96,2.91-1.21.18-.04.33-.17.39-.35l.65-1.68h2.56l.65,1.68c.07.17.21.3.39.35,1.03.24,2.01.65,2.91,1.21.16.1.35.11.52.04ZM36.88,30c0-3.79-3.09-6.88-6.88-6.88s-6.88,3.09-6.88,6.88,3.09,6.88,6.88,6.88,6.88-3.09,6.88-6.88ZM35.76,30c0,3.17-2.58,5.75-5.75,5.75s-5.75-2.58-5.75-5.75,2.58-5.75,5.75-5.75,5.75,2.58,5.75,5.75Z"></path>
</svg>
