<?xml version="1.0" encoding="UTF-8"?>
<svg xmlns="http://www.w3.org/2000/svg" id="Layer_1" data-name="Layer 1" viewBox="0 0 60 60">
  <defs>
    <style>
      .cls-1 {
        fill: #fff;
        fill-rule: evenodd;
        stroke: #fff;
        stroke-width: .5px;
      }

      .cls-2 {
        fill: #d70a53;
      }
    </style>
  </defs>
  <rect class="cls-2" y=".24" width="60" height="60" rx="10" ry="10"></rect>
  <path class="cls-1" d="M44.87,14.39H15.13c-.12,0-.24.05-.33.14-.09.09-.14.21-.14.33v.56c0,.12.05.24.14.33.09.09.21.14.33.14h29.74c.12,0,.24-.05.33-.14.09-.09.14-.21.14-.33v-.56c0-.12-.05-.24-.14-.33-.09-.09-.21-.14-.33-.14ZM44.87,35.87H15.13c-.12,0-.24.05-.33.14-.09.09-.14.21-.14.33v.56c0,.12.05.24.14.33.09.09.21.14.33.14h29.74c.12,0,.24-.05.33-.14.09-.09.14-.21.14-.33v-.56c0-.12-.05-.24-.14-.33-.09-.09-.21-.14-.33-.14h0ZM16.29,34.85h27.42v-17.94h-27.42v17.94ZM35.11,38.39l3.24,7.43c.05.11.14.2.26.25.12.05.24.04.36,0l.51-.22c.11-.05.2-.14.25-.26.05-.12.04-.24,0-.36l-2.98-6.83h-1.64ZM23.26,38.39l-2.98,6.83c-.05.11-.05.24,0,.36.05.12.13.21.25.26l.51.22c.11.05.24.05.36,0,.12-.05.21-.13.26-.25l3.24-7.43h-1.64ZM36.63,44.44h-13.27l-.78,1.79c-.16.36-.45.65-.82.79-.37.14-.78.14-1.14-.02l-.51-.22c-.36-.16-.65-.45-.79-.82-.14-.37-.14-.78.02-1.14l2.8-6.42h-7.02c-.4,0-.77-.16-1.05-.44-.28-.28-.44-.66-.44-1.05v-.56c0-.4.16-.77.44-1.05s.66-.44,1.05-.44h.14v-17.94h-.14c-.4,0-.77-.16-1.05-.44s-.44-.66-.44-1.05v-.56c0-.4.16-.77.44-1.05.28-.28.66-.44,1.05-.44h29.74c.4,0,.77.16,1.05.44.28.28.44.66.44,1.05v.56c0,.4-.16.77-.44,1.05-.28.28-.66.44-1.05.44h-.14v17.94h.14c.4,0,.77.16,1.05.44s.44.66.44,1.05v.56c0,.4-.16.77-.44,1.05-.28.28-.66.44-1.05.44h-7.02l2.8,6.42c.16.36.16.77.02,1.14-.14.37-.43.66-.79.82l-.51.22c-.36.16-.77.16-1.14.02-.37-.14-.66-.43-.82-.79l-.78-1.78h0ZM35.67,42.24l.51,1.17h-12.37l.51-1.17h11.35ZM24.77,41.22l1.23-2.83h7.99l1.23,2.83h-10.45ZM23.55,23.2c.48.48-.25,1.2-.72.72l-1.28-1.28-1.28,1.28c-.1.1-.23.15-.36.15s-.27-.05-.36-.15-.15-.23-.15-.36.05-.27.15-.36l1.28-1.28-1.28-1.28c-.48-.48.25-1.2.72-.72l1.28,1.28,1.28-1.28c.48-.48,1.2.25.72.72l-1.28,1.28,1.28,1.28ZM40.97,31.16c.09.1.15.23.15.36,0,.13-.05.26-.15.36-.1.1-.22.15-.36.15-.13,0-.26-.05-.36-.15l-1.28-1.28-1.28,1.28c-.1.1-.23.15-.36.15-.14,0-.26-.05-.36-.15-.1-.1-.15-.23-.15-.36,0-.14.05-.26.15-.36l1.28-1.28-1.28-1.28c-.09-.1-.14-.23-.14-.36,0-.13.06-.26.15-.36.09-.09.22-.15.36-.15.13,0,.26.05.36.14l1.28,1.28,1.28-1.28c.1-.09.23-.15.36-.15.14,0,.26.05.36.15.1.1.15.23.15.36,0,.14-.05.26-.15.36l-1.28,1.28,1.28,1.28h0ZM36.94,22.09l-1.36-.52,1.07-1.03.28,1.54h0ZM24.17,30.15c.13.13.22.31.23.49.02.19-.03.37-.13.53-.1.16-.26.27-.44.33-.18.05-.37.05-.55-.03-.17-.07-.32-.2-.41-.37-.09-.17-.12-.36-.08-.54.04-.18.14-.35.28-.47.15-.12.33-.18.52-.18.11,0,.21.02.31.06.1.04.19.1.26.18ZM24.5,29.13c.38.22.68.57.82.99s.14.87-.03,1.28c-.16.41-.47.75-.86.95-.39.2-.85.26-1.27.15-.43-.1-.81-.36-1.06-.72-.26-.36-.37-.8-.33-1.24.04-.44.24-.85.56-1.15.32-.3.74-.48,1.18-.5.5-1.54,1.29-2.61,2.35-3.2,1.15-.64,2.6-.71,4.34-.2,1.48.44,2.65.38,3.52-.15.8-.49,1.39-1.39,1.79-2.7l-1.04-.4c-.08-.03-.16-.08-.21-.15s-.09-.15-.11-.24c-.02-.09,0-.18.02-.26.03-.08.08-.16.15-.22l2.32-2.22c.07-.06.15-.11.25-.13.09-.02.19-.01.28.02.09.03.17.09.23.16.06.07.1.16.11.25l.61,3.34c.02.09,0,.18-.02.26-.03.08-.08.16-.15.22-.07.06-.15.1-.24.11-.09.01-.18,0-.26-.03l-.96-.36c-.48,1.53-1.21,2.6-2.21,3.21-1.13.69-2.57.78-4.34.26-1.47-.43-2.65-.39-3.56.11-.81.45-1.43,1.3-1.85,2.55Z"></path>
</svg>
