<?xml version="1.0" encoding="UTF-8"?><svg id="Layer_1" xmlns="http://www.w3.org/2000/svg" xmlns:xlink="http://www.w3.org/1999/xlink" viewBox="0 0 600 350"><defs><linearGradient id="linear-gradient" x1="165.53" y1="55.97" x2="250.6" y2="55.97" gradientTransform="translate(389.8) rotate(-180) scale(1 -1)" gradientUnits="userSpaceOnUse"><stop offset="0" stop-color="#ff5315"/><stop offset=".08" stop-color="#f8461f"/><stop offset=".3" stop-color="#e92c35"/><stop offset=".53" stop-color="#df1946"/><stop offset=".76" stop-color="#d90d4f"/><stop offset="1" stop-color="#d70a53"/></linearGradient><linearGradient id="linear-gradient-2" x1="136.93" y1="87.85" x2="183.32" y2="87.85" xlink:href="#linear-gradient"/><linearGradient id="linear-gradient-3" x1="323.4" y1="20.01" x2="369.78" y2="20.01" gradientTransform="matrix(1,0,0,1,0,0)" xlink:href="#linear-gradient"/><linearGradient id="linear-gradient-4" x1="433.05" y1="112.99" x2="479.44" y2="112.99" gradientTransform="matrix(1,0,0,1,0,0)" xlink:href="#linear-gradient"/><linearGradient id="linear-gradient-5" x1="410.78" y1="258.02" x2="431.07" y2="258.02" gradientTransform="matrix(1,0,0,1,0,0)" xlink:href="#linear-gradient"/><linearGradient id="linear-gradient-6" x1="418.59" y1="265.11" x2="436.6" y2="265.11" gradientTransform="matrix(1,0,0,1,0,0)" xlink:href="#linear-gradient"/><linearGradient id="linear-gradient-7" x1="230.31" y1="242.45" x2="242.79" y2="242.45" gradientTransform="matrix(1,0,0,1,0,0)" xlink:href="#linear-gradient"/><linearGradient id="linear-gradient-8" x1="236.17" y1="247.14" x2="248.25" y2="247.14" gradientTransform="matrix(1,0,0,1,0,0)" xlink:href="#linear-gradient"/><linearGradient id="linear-gradient-9" x1="152.1" y1="256.36" x2="160.18" y2="256.36" gradientTransform="matrix(1,0,0,1,0,0)" xlink:href="#linear-gradient"/><linearGradient id="linear-gradient-10" x1="148.56" y1="259.4" x2="156.39" y2="259.4" gradientTransform="matrix(1,0,0,1,0,0)" xlink:href="#linear-gradient"/></defs><path d="M458.89,152.25c4.19,69.67-27.59,136.36-82.69,170.35-9.77,6.03-20.58,11.24-32.52,15.22-88.19,29.44-121.08,4.65-144.18-26.34-23.1-30.99-1.4-83.68-28-105.37-26.6-21.69-58.79-52.69-45.49-98.4s46.19-75.93,76.99-72.83c30.8,3.1,62.99,43.39,84.69,17.05C309.38,25.57,378.67,0,424.17,44.17c24.31,23.6,32.43,70,34.73,108.08Z" fill="#e6e6e6" opacity=".06"/><line x1="270.28" y1="45.26" x2="238.06" y2="21.12" fill="none" stroke="#293134" stroke-miterlimit="10"/><line x1="341.81" y1="97.95" x2="273.39" y2="47.55" fill="none" stroke="#293134" stroke-miterlimit="10"/><line x1="318.5" y1="104.5" x2="245.99" y2="77.71" fill="none" stroke="#293134" stroke-miterlimit="10"/><line x1="353.34" y1="117.37" x2="323.18" y2="106.23" fill="none" stroke="#293134" stroke-miterlimit="10"/><line x1="238.98" y1="119.58" x2="230.65" y2="119.49" fill="none" stroke="#293134" stroke-miterlimit="10"/><line x1="318.48" y1="120.39" x2="245.58" y2="119.64" fill="none" stroke="#293134" stroke-miterlimit="10"/><line x1="334.31" y1="120.55" x2="323.75" y2="120.44" fill="none" stroke="#293134" stroke-miterlimit="10"/><line x1="360.19" y1="71.06" x2="348.47" y2="37.36" fill="none" stroke="#293134" stroke-miterlimit="10"/><line x1="423.89" y1="74.43" x2="453.3" y2="45.45" fill="none" stroke="#293134" stroke-miterlimit="10"/><line x1="416.81" y1="81.41" x2="421.73" y2="76.56" fill="none" stroke="#293134" stroke-miterlimit="10"/><line x1="393.28" y1="19.8" x2="394.59" y2="11.08" fill="none" stroke="#293134" stroke-miterlimit="10"/><line x1="386.58" y1="64.37" x2="392.83" y2="22.8" fill="none" stroke="#293134" stroke-miterlimit="10"/><line x1="385.6" y1="70.84" x2="386.16" y2="67.17" fill="none" stroke="#293134" stroke-miterlimit="10"/><line x1="436.2" y1="102.55" x2="443.78" y2="99.92" fill="none" stroke="#293134" stroke-miterlimit="10"/><line x1="403.48" y1="113.87" x2="431.37" y2="104.22" fill="none" stroke="#293134" stroke-miterlimit="10"/><line x1="321.18" y1="53.07" x2="339.07" y2="74.01" fill="none" stroke="#293134" stroke-miterlimit="10"/><line x1="292.53" y1="19.54" x2="319.06" y2="50.6" fill="none" stroke="#293134" stroke-miterlimit="10"/><g opacity=".2"><path d="M159.06,58s3.02-9.07,14.25-10.36c11.23-1.3,9.5,5.18,12.95,7.34,3.45,2.16,6.91-1.3,10.8-.43,3.89.86,4.75,4.32,6.91,5.61,2.16,1.3,5.61-1.3,9.07-.86,3.45.43,4.32,3.02,5.61,3.89,1.3.86,5.61,1.3,5.61,1.3h-85.07s2.16-7.34,8.64-9.07c6.48-1.73,8.2,2.16,11.23,2.59Z" fill="url(#linear-gradient)"/><path d="M217.32,88.96s1.65-4.94,7.77-5.65c6.12-.71,5.18,2.83,7.06,4s3.77-.71,5.89-.24c2.12.47,2.59,2.35,3.77,3.06,1.18.71,3.06-.71,4.94-.47s2.35,1.65,3.06,2.12c.71.47,3.06.71,3.06.71h-46.39s1.18-4,4.71-4.94c3.53-.94,4.47,1.18,6.12,1.41Z" fill="url(#linear-gradient-2)"/><path d="M358.95,21.12s-1.65-4.94-7.77-5.65c-6.12-.71-5.18,2.83-7.06,4s-3.77-.71-5.89-.24c-2.12.47-2.59,2.35-3.77,3.06-1.18.71-3.06-.71-4.94-.47s-2.35,1.65-3.06,2.12c-.71.47-3.06.71-3.06.71h46.39s-1.18-4-4.71-4.94c-3.53-.94-4.47,1.18-6.12,1.41Z" fill="url(#linear-gradient-3)"/><path d="M468.6,114.1s-1.65-4.94-7.77-5.65c-6.12-.71-5.18,2.83-7.06,4-1.88,1.18-3.77-.71-5.89-.24-2.12.47-2.59,2.35-3.77,3.06-1.18.71-3.06-.71-4.94-.47s-2.35,1.65-3.06,2.12c-.71.47-3.06.71-3.06.71h46.39s-1.18-4-4.71-4.94-4.47,1.18-6.12,1.41Z" fill="url(#linear-gradient-4)"/></g><path d="M361.58,259.14l-13.26-2.02-10.82-1.38-11.99-1.27-10.08-.85-16.34-1.17-13.26-.41c-16.21,3.07-45.98,12.68-70.07,21.96-12.28,4.73-23.14,9.54-29.66,12.53,1.78,7.48,4.6,14.52,9.21,20.7,23.1,30.99,55.99,55.79,144.18,26.34,4.26-1.42,8.36-3,12.34-4.72l3.39-7.98,7.21-14.11,17.72-30.66,7.53-11.88-10.72-2.44-15.38-2.65Z" fill="#f0f0f0" stroke="#b3b3b3" stroke-miterlimit="10"/><path d="M430.85,220.15l-10.73-6.88-11.15-6.04-11.04-5.1-12.61-5.1-12.81-4.27-14.27-3.75-10.21-2.08-10.73-.31-19.38.52-26.2,1.62s11.29,5.47,23.98,13.23c12.7,7.76,22.39,21.16,28.39,29.62,6,8.46,12.7,26.45,12.7,26.45l7.91,1.38,15.52,2.92,11.46,2.71,13.75,3.13,14.92,4.31c9.26-13.14,16.83-27.65,22.51-43.08l-12.01-9.26Z" fill="#f0f0f0"/><path d="M224.74,197.65l1.7-4.4,2.98-5.97,5.11-7.81,6.11-7.53,8.1-7.39,8.24-6.82-5.4-1.85-19.32-4.54-4.69,1.14-7.24,1.85-13.21,4.4-10.37,4.54-12.36,6.96-16.05,10.37c-1.44.89-9.96,7.56-13.65,10.46,4.21,3.84,8.47,7.43,12.6,10.8,2.72,2.22,4.92,4.76,6.73,7.56l3.97-1.12,11.22-3.27,16.76-3.69,18.75-3.69Z" fill="#f0f0f0"/><polygon points="369.07 124.12 357.88 133.03 348.4 141.94 338.73 152.75 330.58 162.23 325.65 169.62 321.29 176.07 319.59 178.91 335.32 186.31 337.3 186.61 341.96 186.31 349.73 166.4 355.98 154.27 363.95 140.81 371.34 130.19 376.27 124.12 369.07 124.12" fill="#f0f0f0"/><path d="M232.8,151.54s-40.56,3.41-90.97,50.79" fill="none" stroke="#b3b3b3" stroke-miterlimit="10"/><path d="M257.05,157.6s-25.39,17.44-32.22,39.8" fill="none" stroke="#b3b3b3" stroke-miterlimit="10"/><path d="M347.38,339.09c8.79-24.95,31.68-61.52,40.42-75.05" fill="none" stroke="#b3b3b3" stroke-miterlimit="10"/><path d="M148.75,305.82s65.14-37.82,137.09-53.77" fill="none" stroke="#b3b3b3" stroke-miterlimit="10"/><path d="M290.54,188.86s49.52,15.69,66.19,69.63" fill="none" stroke="#b3b3b3" stroke-miterlimit="10"/><path d="M347.91,186.9s71.1,11.28,108.36,56.39" fill="none" stroke="#b3b3b3" stroke-miterlimit="10"/><path d="M319.33,179.11s16.3-29.92,50.04-54.9" fill="none" stroke="#b3b3b3" stroke-miterlimit="10"/><path d="M376.34,123.86s-26.33,32.9-34.22,62.7" fill="none" stroke="#b3b3b3" stroke-miterlimit="10"/><g opacity=".6"><path d="M430.3,244.91c-.65-.35-1.49-.24-2.3.3-1.39.85-3.22,3.23-3.66,4.02-.58.48-1.13.98-1.66,1.5.46-.94,1.71-3.5.66-5.07-1.46-1.99-3.3.88-2.49,2.68.61,1.51.9,2.71.88,3.38-.68.75-1.32,1.53-1.9,2.35.29-.97,1.1-3.73-.22-5.11-1.77-1.72-3.08,1.4-1.98,3.04.86,1.39,1.36,2.53,1.44,3.19-.55.85-1.04,1.73-1.48,2.64.12-.99.47-3.87-1.07-5.02-2.03-1.4-2.8,1.88-1.44,3.32,1.08,1.23,1.76,2.28,1.95,2.91-.4.93-.74,1.88-1.03,2.85-.05-1.01-.18-3.9-1.89-4.77-2.24-1.04-2.45,2.33-.87,3.53,1.27,1.03,2.11,1.95,2.41,2.55-.24.98-.42,1.98-.54,2.99-.22-1.03-.84-3.83-2.65-4.39-2.38-.65-2.03,2.74-.27,3.66,1.41.8,2.4,1.57,2.79,2.12-.08,1.18-.08,2.38.01,3.57,0,.11.1.19.2.19,0,0,.01,0,.02,0,.11,0,.2-.11.19-.22-.09-1.18-.09-2.36-.01-3.52.47-.48,1.57-1.04,3.12-1.31,1.84-.39,3.28-2.03.97-2.65-1.89-.59-3.42,1.52-3.95,2.49.12-.96.3-1.92.52-2.86.55-.38,1.72-.73,3.28-.72,1.88-.06,3.57-1.42,1.39-2.43-1.75-.88-3.59.88-4.28,1.73.28-.91.6-1.8.97-2.68.6-.28,1.81-.42,3.35-.15,1.86.26,3.75-.79,1.77-2.15-1.57-1.16-3.67.26-4.51.98.42-.85.89-1.67,1.4-2.46.64-.18,1.86-.11,3.33.41,1.79.57,3.83-.16,2.11-1.83-1.37-1.41-3.7-.34-4.63.23.56-.77,1.16-1.5,1.8-2.21.66-.07,1.86.19,3.23.95,1.67.86,3.82.47,2.41-1.46-1.12-1.63-3.64-.94-4.64-.53.53-.52,1.09-1.03,1.67-1.51.77-.29,3.08-1.04,4.01-1.28.56-.19,2.38-.91,2.35-2.08,0-.47-.31-.93-.78-1.18Z" fill="url(#linear-gradient-5)"/><path d="M436.4,260.45c-.3-.41-.85-.6-1.52-.52-1.12.11-2.98,1.02-3.49,1.37-.5.12-1,.26-1.49.43.57-.44,2.13-1.65,1.96-2.94-.3-1.68-2.31-.46-2.36.9-.08,1.12-.27,1.96-.49,2.36-.65.26-1.28.55-1.9.88.48-.51,1.82-1.97,1.43-3.23-.58-1.6-2.33-.08-2.15,1.28.11,1.13.07,1.98-.08,2.42-.6.36-1.17.76-1.72,1.19.38-.57,1.47-2.25.87-3.44-.83-1.49-2.31.31-1.9,1.62.3,1.09.4,1.95.32,2.4-.53.45-1.03.94-1.5,1.45.28-.64,1.08-2.47.29-3.53-1.07-1.33-2.23.7-1.61,1.92.47,1.03.71,1.85.71,2.31-.45.54-.86,1.1-1.25,1.69.18-.7.64-2.63-.3-3.53-1.28-1.13-2.09,1.08-1.28,2.19.63.93,1.01,1.7,1.09,2.16-.41.71-.77,1.45-1.08,2.22-.03.07,0,.15.07.18,0,0,0,0,0,0,.07.03.16,0,.18-.08.31-.76.66-1.49,1.07-2.19.44-.16,1.29-.17,2.33.14,1.26.32,2.65-.25,1.41-1.35-.99-.94-2.58-.1-3.21.34.37-.56.77-1.1,1.2-1.61.46-.07,1.29.07,2.25.55,1.18.54,2.64.21,1.6-1.08-.81-1.08-2.49-.55-3.18-.23.45-.48.92-.93,1.42-1.36.46,0,1.25.29,2.12.93,1.07.73,2.56.65,1.75-.79-.62-1.2-2.35-.96-3.09-.77.52-.4,1.06-.76,1.62-1.1.45.09,1.19.5,1.94,1.27.93.9,2.42,1.07,1.87-.49-.42-1.29-2.19-1.34-2.94-1.27.58-.31,1.18-.58,1.79-.82.43.16,1.09.68,1.71,1.58.77,1.04,2.22,1.46,1.94-.17-.19-1.35-1.97-1.69-2.72-1.74.49-.16.99-.3,1.5-.42.57.06,2.22.29,2.88.43.4.05,1.75.16,2.09-.57.14-.29.09-.67-.12-.97Z" fill="url(#linear-gradient-6)"/></g><g opacity=".7"><path d="M242.11,232.4c-.49-.17-1.07,0-1.58.45-.88.75-1.92,2.61-2.14,3.21-.35.4-.69.81-1.01,1.23.23-.71.83-2.64-.07-3.63-1.24-1.24-2.22.96-1.46,2.15.59,1,.92,1.81.97,2.28-.4.6-.76,1.22-1.09,1.85.1-.71.38-2.73-.69-3.57-1.43-1.02-2.02,1.31-1.07,2.34.75.89,1.22,1.63,1.35,2.09-.29.66-.55,1.33-.76,2.01-.02-.71-.08-2.76-1.28-3.41-1.58-.76-1.77,1.62-.66,2.48.89.75,1.48,1.41,1.68,1.84-.18.69-.32,1.4-.42,2.11-.14-.7-.54-2.72-1.83-3.15-1.68-.49-1.47,1.89-.24,2.57,1,.59,1.69,1.15,1.96,1.54-.06.71-.08,1.43-.06,2.15-.26-.7-1-2.6-2.33-2.8-1.74-.2-1.13,2.14.2,2.6,1.08.41,1.85.85,2.19,1.19.07.84.2,1.68.39,2.51.02.08.09.12.16.11,0,0,0,0,.01,0,.08-.02.13-.1.11-.17-.19-.82-.31-1.64-.38-2.47.28-.39.99-.9,2.05-1.25,1.25-.47,2.09-1.77.4-1.97-1.39-.21-2.24,1.43-2.51,2.17-.02-.69,0-1.38.07-2.06.34-.33,1.13-.69,2.23-.86,1.31-.24,2.35-1.37.72-1.85-1.32-.44-2.42.99-2.83,1.67.1-.67.23-1.33.4-1.98.39-.26,1.23-.49,2.33-.46,1.33-.01,2.55-.95,1.02-1.7-1.23-.65-2.55.57-3.06,1.17.21-.64.45-1.26.72-1.88.43-.19,1.29-.28,2.38-.06,1.31.21,2.67-.52,1.29-1.51-1.11-.85-2.63.15-3.23.65.31-.6.65-1.18,1.03-1.74.46-.12,1.32-.06,2.37.33,1.26.43,2.73-.07,1.54-1.28-.96-1.03-2.65-.28-3.32.12.32-.42.66-.84,1.02-1.23.51-.28,2.05-1.06,2.68-1.32.37-.19,1.57-.89,1.43-1.71-.05-.33-.31-.62-.67-.74Z" fill="url(#linear-gradient-7)"/><path d="M248.04,242.68c-.25-.26-.66-.33-1.12-.2-.78.19-1.98,1.03-2.31,1.33-.34.14-.67.29-1,.46.36-.37,1.32-1.38,1.06-2.27-.39-1.15-1.67-.08-1.56.88.06.8.02,1.4-.09,1.71-.43.25-.84.52-1.24.82.28-.41,1.07-1.58.66-2.42-.57-1.07-1.65.19-1.38,1.13.2.78.26,1.39.2,1.7-.38.32-.74.66-1.09,1.01.2-.44.8-1.74.25-2.5-.74-.95-1.59.46-1.17,1.34.32.74.49,1.33.48,1.65-.32.38-.62.77-.9,1.18.13-.48.49-1.85-.17-2.51-.89-.82-1.49.73-.93,1.52.44.67.7,1.23.75,1.55-.26.42-.49.86-.7,1.32.05-.51.17-1.91-.59-2.45-1.02-.66-1.35.98-.67,1.67.54.59.89,1.09.99,1.4-.21.54-.39,1.1-.53,1.67-.01.05.02.1.07.12,0,0,0,0,0,0,.05.01.11-.02.12-.07.13-.56.31-1.11.52-1.65.29-.16.89-.25,1.65-.15.92.09,1.83-.46.85-1.1-.79-.55-1.82.2-2.22.58.2-.43.42-.85.67-1.26.31-.1.91-.09,1.64.15.89.25,1.88-.13,1.01-.93-.68-.67-1.81-.12-2.26.17.26-.38.55-.75.85-1.11.32-.04.91.07,1.59.43.83.4,1.87.19,1.15-.74-.56-.78-1.76-.43-2.25-.21.32-.33.66-.65,1.02-.94.33.01.88.22,1.49.69.75.53,1.81.5,1.26-.54-.43-.86-1.68-.71-2.2-.58.37-.28.76-.53,1.17-.77.32.06.84.36,1.37.93.65.65,1.71.79,1.34-.33-.28-.93-1.56-.98-2.09-.94.33-.17.66-.32,1.01-.45.4-.02,1.59-.03,2.07,0,.29,0,1.25-.07,1.41-.62.07-.22,0-.48-.19-.67Z" fill="url(#linear-gradient-8)"/></g><g opacity=".7"><path d="M152.54,249.85c.32-.11.69,0,1.03.29.57.48,1.24,1.69,1.39,2.08.23.26.45.52.65.8-.15-.46-.54-1.71.05-2.35.8-.81,1.44.62.95,1.39-.38.65-.6,1.17-.63,1.48.26.39.49.79.7,1.2-.06-.46-.24-1.77.45-2.31.92-.66,1.31.85.69,1.52-.49.57-.79,1.06-.87,1.35.19.42.35.86.49,1.3.01-.46.05-1.79.83-2.21,1.02-.5,1.14,1.05.43,1.61-.58.49-.96.91-1.09,1.19.12.45.21.91.27,1.37.09-.45.35-1.76,1.19-2.04,1.09-.32.95,1.23.15,1.66-.65.38-1.1.74-1.27.99.04.46.05.93.04,1.4.17-.45.65-1.68,1.51-1.82,1.13-.13.73,1.38-.13,1.68-.7.27-1.2.55-1.42.77-.05.54-.13,1.09-.25,1.62-.01.05-.06.08-.11.07,0,0,0,0,0,0-.05-.01-.08-.06-.07-.11.12-.53.2-1.07.25-1.6-.18-.25-.64-.58-1.33-.81-.81-.3-1.35-1.15-.26-1.27.9-.14,1.45.93,1.63,1.4.01-.45,0-.89-.04-1.34-.22-.21-.73-.45-1.44-.55-.85-.16-1.53-.89-.47-1.2.85-.28,1.57.64,1.83,1.08-.06-.43-.15-.86-.26-1.28-.26-.17-.8-.32-1.51-.3-.86,0-1.65-.62-.66-1.1.79-.42,1.65.37,1.98.75-.13-.41-.29-.82-.47-1.22-.28-.12-.84-.18-1.54-.04-.85.14-1.73-.33-.83-.98.72-.55,1.71.1,2.09.42-.2-.39-.42-.76-.67-1.13-.29-.08-.86-.04-1.53.21-.82.28-1.77-.05-.99-.83.62-.67,1.72-.18,2.15.08-.21-.28-.43-.54-.66-.8-.33-.18-1.33-.68-1.74-.86-.24-.13-1.02-.58-.93-1.11.03-.21.2-.4.43-.48Z" fill="url(#linear-gradient-9)"/><path d="M148.7,256.51c.16-.17.43-.21.73-.13.5.12,1.29.67,1.49.86.22.09.44.19.65.3-.23-.24-.85-.89-.69-1.47.25-.74,1.08-.05,1.01.57-.04.52-.01.91.06,1.11.28.16.55.34.8.53-.18-.27-.69-1.02-.43-1.57.37-.69,1.07.13.89.73-.13.5-.17.9-.13,1.1.25.21.48.43.7.66-.13-.29-.52-1.12-.16-1.62.48-.62,1.03.3.76.87-.21.48-.31.86-.31,1.07.21.24.4.5.58.76-.08-.31-.32-1.2.11-1.63.58-.53.97.47.6.98-.29.44-.45.79-.48,1,.17.27.32.56.45.85-.03-.33-.11-1.24.38-1.59.66-.43.88.63.43,1.08-.35.38-.57.71-.64.91.14.35.25.71.34,1.08,0,.03-.01.07-.04.08,0,0,0,0,0,0-.04,0-.07-.01-.08-.05-.09-.37-.2-.72-.34-1.07-.19-.1-.57-.16-1.07-.09-.59.06-1.19-.3-.55-.71.51-.36,1.18.13,1.44.37-.13-.28-.27-.55-.43-.81-.2-.06-.59-.06-1.06.1-.57.16-1.22-.09-.65-.6.44-.44,1.17-.08,1.46.11-.17-.25-.36-.49-.55-.72-.21-.03-.59.05-1.03.28-.54.26-1.21.12-.74-.48.36-.5,1.14-.28,1.46-.14-.21-.22-.43-.42-.66-.61-.21,0-.57.14-.97.44-.49.34-1.17.32-.82-.35.28-.56,1.09-.46,1.42-.38-.24-.18-.5-.34-.76-.5-.21.04-.54.24-.89.6-.42.42-1.11.51-.87-.21.18-.6,1.01-.64,1.35-.61-.21-.11-.43-.21-.65-.29-.26-.01-1.03-.02-1.34,0-.19,0-.81-.05-.91-.4-.04-.14,0-.31.12-.43Z" fill="url(#linear-gradient-10)"/></g><path d="M450.14,283.13c-18.4-7.6-39.39-14.06-62.34-19.09-30.94-6.8-65.43-11.01-101.97-12-5.49-.15-11.02-.22-16.6-.22-55.18,0-106.36,7.36-148.53,19.92" fill="none" stroke="#b3b3b3" stroke-miterlimit="10"/><path d="M444.28,194.32c5.91.89,11.88,1.87,17.91,2.94" fill="none" stroke="#b3b3b3" stroke-miterlimit="10"/><path d="M138.88,221.33s124.09-53.5,302.19-27.49" fill="none" stroke="#b3b3b3" stroke-miterlimit="10"/><path d="M141.05,141.63c22.22-.56,101.74,1.02,195.44,45.15" fill="none" stroke="#b3b3b3" stroke-miterlimit="10"/><path d="M134.87,141.91s1.17-.09,3.41-.18" fill="none" stroke="#293134" stroke-miterlimit="10"/><path d="M247.05,154.49s93.19-47.08,209.52-25.42" fill="none" stroke="#b3b3b3" stroke-miterlimit="10"/><path d="M175.32,215.71l2.98,2.15.17,7.77s-3.31-.17-4.63-1.32c-1.32-1.16-1.87-3.21-1.87-3.21l3.36-5.39Z" fill="#fff" stroke="#1a2e35" stroke-miterlimit="10"/><path d="M172.47,165.94c-.02-.15-.23-.18-.28-.03-1.49,4.1-10.63,29.46-9.98,32.47.7,3.28,5.48,16.27,6.19,17.64.63,1.22,2.15,1.57,2.47,1.63.04,0,.07.03.09.07.19.36,1.26,2.37,1.52,3.36.28,1.09,1.83.68,2.67.41.84-.27,1.41-1.5,1.69-1.91.28-.41.28.14.28-1.23,0-1.28-.99-4.61-1.11-5.02,0-.03,0-.05,0-.08.1-.28.69-2,.69-3.38,0-1.5-1.69-12.17-1.83-12.86-.13-.65.86-3.79.97-4.13,0-.02,0-.04,0-.06l-3.37-26.88Z" fill="#d70a53" stroke="#293134" stroke-miterlimit="10" stroke-width=".25"/><path d="M208.9,309.36s1.06,1.72,1.46,1.98c.4.26,2.65,1.72,3.44,2.12.79.4,1.46,1.06,1.46,2.25s-1.19,1.59-3.7,2.51c-2.51.93-3.97,2.38-7.54,2.65-3.57.26-4.9-.4-4.9-1.46s.52-8.14.52-8.14c0,0,7.56.21,9.28-1.91Z" fill="#1a2e35" stroke="#1a2e35" stroke-miterlimit="10"/><path d="M178.55,309.95s-.24,6.86,0,7.41c.25.55,1.48,1.43,3.94,1.54,2.46.11,4.31-.66,4.8-1.1.49-.44.49-1.54.49-1.54l.76-6.04-10-.27Z" fill="#1a2e35" stroke="#1a2e35" stroke-miterlimit="10"/><path d="M178.13,213.08s-1.61,11.49-1.34,14.84c.27,3.35.4,8.16.4,8.16l1.28,68.08-1.82.99,1.16,4.79s2.15.83,4.3.99,6.45-.66,6.45-.66l.66-3.31-.99-2.65s0-.99.33-2.31c.33-1.32,1.98-30.26,1.98-30.26l4.13-34.39,1.49,2.48,3.8,63.65s-1.32,2.48-1.16,2.98c.17.5.83,2.48.83,2.48v2.31s2.31.99,4.3.5c1.98-.5,4.79-1.49,4.79-1.49,0,0,.83-2.31.83-2.81s-.17-1.65-.17-2.31,6.07-73.35,6.07-73.35l-1.94-17.75-35.39-.97Z" fill="#293134" stroke="#293134" stroke-miterlimit="10"/><path d="M186.19,157.01s-13.85,5.73-14.02,8.54c-.18,2.81,5.96,47.54,5.96,47.54l34.73.91s.44-50.72-.26-51.77c-.7-1.05-12.43-5.07-12.43-5.07,0,0-11.72-.79-13.99-.14Z" fill="#d70a53" stroke="#293134" stroke-miterlimit="10" stroke-width=".25"/><path d="M206.59,139.45s.71,2.71.29,3.85c-.43,1.14-.14,1.28-.14,2.43s.29,2.85-.71,4.85c-1,2-2.14,5.28-3.28,5.57-1.14.29-2.97-.29-2.97-.29l.4,1.29-11.56-1.71.43-3s-.29-7.42-.14-8.7,0-5.42,3.42-7.99c3.42-2.57,12.42-2.85,14.27,3.71Z" fill="#fff" stroke="#293134" stroke-miterlimit="10"/><path d="M190.75,129.89s-3.57,1.14-4.85,6.28c-1.28,5.14.14,9.85,1,10.85s2,2.85,2,2.85l.14,2.57s6.56.86,7.99.57,2-.57,2.57-1,1.14-2,1.57-4c.43-2,2.28-4.14,2.28-3v2.28s1.57-.29,1.57-1.43-.29-2.14,0-2.71c.29-.57,1.28-1.14,1.86-2.28.57-1.14.57-4.71.57-4.71,0,0,1.71,2.28,1.86.29.14-2-.86-4.99-3.85-6.42-3-1.43-5.14-1.14-5.14-1.14,0,0-5.28-3.42-9.56,1Z" fill="#293134" stroke="#293134" stroke-miterlimit="10"/><path d="M203.45,158.01s-2.71-2.71-7.42-3.85c-4.71-1.14-8.28-.14-8.99.86-.71,1-.86,2-.86,2,0,0,6.56.14,9.13.43,2.57.29,9.99,1.82,9.99,1.82l-1.86-1.25Z" fill="#d70a53" stroke="#293134" stroke-miterlimit="10" stroke-width=".25"/><path d="M209.72,177.83l1.75,32.63,5.61,19.82,4.56-.35,1.05-4.39s.53-3.86.53-4.56-1.23-40.87-3.16-47.36c-1.93-6.49-5.32-9.25-7.47-11.4" fill="#d70a53" stroke="#293134" stroke-miterlimit="10" stroke-width=".25"/><rect x="219.43" y="236.02" width="1.72" height="7.73" fill="#1a2e35" stroke="#1a2e35" stroke-miterlimit="10"/><path d="M220.58,229.92l2.1,5.76-2.54,4.15s-2.68-.13-3.08-.54-2.14-2.14-1.47-2.68l.67-.54s-1.07-3.35-.8-4.28c.27-.94.56-1.53.56-1.53l4.56-.35Z" fill="#fff" stroke="#1a2e35" stroke-miterlimit="10" stroke-width=".75"/><rect x="216.64" y="236.02" width="1.72" height="7.73" fill="#1a2e35" stroke="#1a2e35" stroke-miterlimit="10"/><polygon points="219.1 279.12 227.86 275.88 227.86 244.04 219.1 243.73 219.1 279.12" fill="#999" stroke="#1a2e35" stroke-miterlimit="10"/><rect x="210.79" y="243.73" width="8.31" height="35.38" fill="#e6e6e6" stroke="#1a2e35" stroke-miterlimit="10"/><path d="M402.4,97.17h-2.77c-.31-12.26-10.19-22.14-22.45-22.45v-2.77h-1.2v2.77c-12.26.31-22.14,10.19-22.45,22.45h-2.77v1.2h2.77c.31,12.26,10.19,22.14,22.45,22.45v2.77h1.2v-2.77c12.26-.31,22.14-10.19,22.45-22.45h2.77v-1.2ZM394.75,97.17h-3.11c-.31-7.85-6.61-14.16-14.46-14.46v-3.11c9.57.31,17.27,8.01,17.58,17.58ZM374.38,97.17h-3.27c.28-2.56,2.31-4.59,4.86-4.86v3.27c-.78.21-1.38.82-1.59,1.59ZM374.38,98.37c.21.78.82,1.38,1.59,1.6v3.27c-2.56-.28-4.59-2.31-4.86-4.86h3.27ZM377.17,99.96c.78-.21,1.38-.82,1.59-1.6h3.27c-.28,2.56-2.31,4.59-4.86,4.86v-3.27ZM378.77,97.17c-.21-.78-.82-1.38-1.59-1.59v-3.27c2.56.28,4.59,2.31,4.86,4.86h-3.27ZM375.98,89.2c-4.27.29-7.67,3.7-7.96,7.96h-3.32c.3-6.1,5.18-10.98,11.28-11.28v3.32ZM368.01,98.37c.3,4.27,3.7,7.67,7.96,7.96v3.32c-6.1-.3-10.98-5.18-11.28-11.28h3.32ZM377.17,106.33c4.27-.29,7.67-3.7,7.97-7.96h3.32c-.3,6.1-5.18,10.98-11.28,11.28v-3.32ZM385.14,97.17c-.29-4.27-3.7-7.67-7.97-7.96v-3.32c6.1.3,10.98,5.18,11.28,11.28h-3.32ZM375.98,79.59v3.11c-7.85.31-14.16,6.61-14.46,14.46h-3.11c.31-9.57,8.01-17.27,17.58-17.58ZM358.4,98.37h3.11c.31,7.85,6.61,14.16,14.46,14.46v3.11c-9.57-.31-17.27-8.01-17.58-17.58ZM377.17,115.94v-3.11c7.85-.31,14.16-6.61,14.46-14.46h3.11c-.31,9.57-8.01,17.27-17.58,17.58Z" fill="#293134"/><circle cx="376.57" cy="97.77" r="13.09" fill="none" stroke="#d70a53" stroke-miterlimit="10" stroke-width="3.7"/><circle cx="376.57" cy="97.77" r="2.36" fill="#d70a53"/></svg>